<svg width="32" height="32" viewBox="0 0 32 32" fill="none" xmlns="http://www.w3.org/2000/svg">
<path d="M25.0661 16.0331C25.0661 11.0443 21.0218 7 16.0331 7C11.0443 7 7 11.0443 7 16.0331C7 20.2692 9.91659 23.8239 13.851 24.8002V18.7936H11.9884V16.0331H13.851V14.8436C13.851 11.7691 15.2425 10.344 18.261 10.344C18.8333 10.344 19.8208 10.4564 20.2248 10.5684V13.0706C20.0116 13.0482 19.6412 13.037 19.1813 13.037C17.7002 13.037 17.1279 13.5981 17.1279 15.0568V16.0331H20.0784L19.5715 18.7936H17.1279V25C21.6 24.4598 25.0661 20.6515 25.0661 16.0331Z" fill="white"/>
</svg>
