<svg width="33" height="32" viewBox="0 0 33 32" fill="none" xmlns="http://www.w3.org/2000/svg">
<path d="M16.5007 7C14.0565 7 13.7497 7.01069 12.7897 7.05438C11.8316 7.09825 11.1776 7.24994 10.6054 7.4725C10.0134 7.70238 9.51131 8.00988 9.01106 8.51031C8.51044 9.01056 8.20294 9.51269 7.97231 10.1044C7.74919 10.6769 7.59731 11.3311 7.55419 12.2888C7.51125 13.2488 7.5 13.5557 7.5 16C7.5 18.4443 7.51088 18.7501 7.55438 19.7101C7.59844 20.6682 7.75012 21.3222 7.9725 21.8944C8.20256 22.4864 8.51006 22.9885 9.0105 23.4888C9.51056 23.9894 10.0127 24.2976 10.6042 24.5275C11.1769 24.7501 11.8311 24.9018 12.789 24.9456C13.749 24.9893 14.0556 25 16.4996 25C18.9441 25 19.2499 24.9893 20.2099 24.9456C21.168 24.9018 21.8227 24.7501 22.3954 24.5275C22.9871 24.2976 23.4885 23.9894 23.9886 23.4888C24.4892 22.9885 24.7967 22.4864 25.0273 21.8946C25.2486 21.3222 25.4004 20.668 25.4454 19.7103C25.4886 18.7503 25.4998 18.4443 25.4998 16C25.4998 13.5557 25.4886 13.249 25.4454 12.289C25.4004 11.3309 25.2486 10.6769 25.0273 10.1046C24.7967 9.51269 24.4892 9.01056 23.9886 8.51031C23.4879 8.00969 22.9873 7.70219 22.3948 7.4725C21.8211 7.24994 21.1667 7.09825 20.2086 7.05438C19.2486 7.01069 18.9429 7 16.4979 7H16.5007ZM15.6934 8.62187C15.933 8.6215 16.2004 8.62187 16.5007 8.62187C18.9037 8.62187 19.1886 8.6305 20.1375 8.67363C21.015 8.71375 21.4912 8.86038 21.8085 8.98356C22.2285 9.14669 22.5279 9.34169 22.8427 9.65669C23.1577 9.97169 23.3527 10.2717 23.5162 10.6917C23.6394 11.0086 23.7862 11.4848 23.8262 12.3623C23.8693 13.3111 23.8787 13.5961 23.8787 15.9979C23.8787 18.3998 23.8693 18.6848 23.8262 19.6336C23.7861 20.5111 23.6394 20.9873 23.5162 21.3042C23.3531 21.7242 23.1577 22.0233 22.8427 22.3381C22.5277 22.6531 22.2287 22.8481 21.8085 23.0112C21.4916 23.1349 21.015 23.2812 20.1375 23.3213C19.1887 23.3644 18.9037 23.3738 16.5007 23.3738C14.0976 23.3738 13.8127 23.3644 12.864 23.3213C11.9865 23.2808 11.5102 23.1342 11.1928 23.011C10.7728 22.8479 10.4728 22.6529 10.1578 22.3379C9.84281 22.0229 9.64781 21.7236 9.48431 21.3034C9.36112 20.9866 9.21431 20.5103 9.17437 19.6328C9.13125 18.6841 9.12262 18.3991 9.12262 15.9957C9.12262 13.5923 9.13125 13.3088 9.17437 12.3601C9.2145 11.4826 9.36112 11.0063 9.48431 10.6891C9.64744 10.2691 9.84281 9.96906 10.1578 9.65406C10.4728 9.33906 10.7728 9.14406 11.1928 8.98056C11.5101 8.85681 11.9865 8.71056 12.864 8.67025C13.6942 8.63275 14.016 8.6215 15.6934 8.61963V8.62187ZM21.3049 10.1162C20.7086 10.1162 20.2249 10.5994 20.2249 11.1959C20.2249 11.7921 20.7086 12.2759 21.3049 12.2759C21.9011 12.2759 22.3849 11.7921 22.3849 11.1959C22.3849 10.5996 21.9011 10.1159 21.3049 10.1159V10.1162ZM16.5007 11.3781C13.9483 11.3781 11.8789 13.4476 11.8789 16C11.8789 18.5524 13.9483 20.6209 16.5007 20.6209C19.0532 20.6209 21.1219 18.5524 21.1219 16C21.1219 13.4476 19.0532 11.3781 16.5007 11.3781ZM16.5007 13C18.1575 13 19.5007 14.3431 19.5007 16C19.5007 17.6567 18.1575 19 16.5007 19C14.8438 19 13.5007 17.6567 13.5007 16C13.5007 14.3431 14.8438 13 16.5007 13Z" fill="white"/>
</svg>
