<svg width="32" height="32" viewBox="0 0 32 32" fill="none" xmlns="http://www.w3.org/2000/svg">
<path d="M23.7143 7C24.3973 7 25 7.60268 25 8.32589V23.7143C25 24.4375 24.3973 25 23.7143 25H8.24554C7.5625 25 7 24.4375 7 23.7143V8.32589C7 7.60268 7.5625 7 8.24554 7H23.7143ZM12.4241 22.4286V13.8705H9.77232V22.4286H12.4241ZM11.0982 12.6652C11.942 12.6652 12.625 11.9821 12.625 11.1384C12.625 10.2946 11.942 9.57143 11.0982 9.57143C10.2143 9.57143 9.53125 10.2946 9.53125 11.1384C9.53125 11.9821 10.2143 12.6652 11.0982 12.6652ZM22.4286 22.4286V17.7277C22.4286 15.4375 21.9063 13.6295 19.2143 13.6295C17.9286 13.6295 17.0446 14.3527 16.683 15.0357H16.6429V13.8705H14.1116V22.4286H16.7634V18.2098C16.7634 17.0848 16.9643 16 18.3705 16C19.7366 16 19.7366 17.2857 19.7366 18.25V22.4286H22.4286Z" fill="white"/>
</svg>
