<?xml version="1.0" encoding="UTF-8"?>
<svg id="Layer_1" xmlns="http://www.w3.org/2000/svg" version="1.1" viewBox="0 0 66.6 24">
  <!-- Generator: Adobe Illustrator 29.0.0, SVG Export Plug-In . SVG Version: 2.1.0 Build 186)  -->
  <defs>
    <style>
      .st0 {
        fill: #fff;
      }

      .st1 {
        fill: #b8ef36;
      }
    </style>
  </defs>
  <path class="st1" d="M9.9.2c-.1,0-.3,0-.4.1-.6,1-1.8,1.7-3,1.7-1.2,0-2.3-.6-3-1.7,0-.1-.2-.2-.4-.1-.3.1-.5.3-.8.5-.1,0-.2.3,0,.4.9,1.5,2.5,2.4,4.2,2.4,1.7,0,3.3-.9,4.2-2.4,0-.1,0-.3,0-.4-.3-.2-.5-.3-.8-.5ZM6.6,10.4c-1.7,0-3.3.9-4.2,2.4,0,.1,0,.3,0,.4.3.2.5.3.8.5.1,0,.3,0,.4-.1,1-1.6,3.2-2.2,4.8-1.1.5.3.8.7,1.1,1.1,0,.1.2.2.4.1.3-.1.5-.3.8-.5.1,0,.2-.3,0-.4-.9-1.5-2.5-2.4-4.2-2.4ZM10.6,6.9c0-1.5.9-2.8,2.3-3.3.2,0,.3-.2.2-.4-.2-.3-.3-.5-.5-.8,0-.1-.2-.1-.3,0-1.8.8-3.1,2.6-3.1,4.6,0,2,1.3,3.8,3.1,4.6.1,0,.3,0,.3,0,.2-.2.4-.5.5-.8,0-.2,0-.3-.2-.4-1.4-.5-2.3-1.8-2.3-3.3ZM.5,2.4c-.2.2-.4.5-.5.8,0,.2,0,.3.2.4,1.4.5,2.3,1.8,2.3,3.3,0,1.5-.9,2.8-2.3,3.3-.2,0-.3.2-.2.4.2.3.3.5.5.8,0,.1.2.1.3,0,1.8-.8,3-2.6,3-4.6,0-2-1.2-3.8-3-4.6-.1,0-.3,0-.3,0Z"/>
  <path class="st0" d="M21.7,10.2c.4,0,.7,0,.9,0v2.1c-.5,0-1.1.1-1.8.1-.3,0-.5,0-.8,0-.2,0-.5-.1-.8-.2-.3-.1-.5-.3-.7-.5-.2-.2-.3-.5-.5-.9-.1-.4-.2-.9-.2-1.4v-3.4h-1.3v-2.1h1.3V1.3h2.7v2.5h1.9v2.1h-1.9v2.8c0,.6,0,1,.3,1.1.2.2.5.3.9.3Z"/>
  <path class="st0" d="M26.8,12.5c-1.2,0-2.2-.4-2.9-1.2-.7-.8-1.1-1.9-1.1-3.2,0-1.3.4-2.3,1.1-3.2.7-.8,1.7-1.3,2.9-1.3.6,0,1.1.1,1.6.4.5.3.8.6,1,1v-1.2h2.7v8.4h-2.7v-1.2c-.2.4-.6.8-1.1,1-.5.3-1,.4-1.6.4ZM27.5,10.3c.6,0,1.1-.2,1.5-.6.3-.4.5-.9.5-1.6,0-.6-.2-1.2-.5-1.6s-.8-.6-1.5-.6c-.6,0-1.1.2-1.5.6-.4.4-.6.9-.6,1.6,0,.7.2,1.2.6,1.6.4.4.9.6,1.5.6h0Z"/>
  <path class="st0" d="M39,3.6c1.2,0,2.1.4,2.8,1.2.7.8,1.1,1.9,1.1,3.2,0,1.3-.4,2.4-1.1,3.2-.7.8-1.7,1.2-2.8,1.2-.6,0-1.1-.1-1.6-.4-.5-.3-.8-.6-1-1v4.7h-2.7V3.8h2.7v1.2c.2-.4.6-.8,1.1-1,.5-.3,1.1-.4,1.7-.4ZM38.2,10.3c.6,0,1.1-.2,1.4-.6.4-.4.6-.9.6-1.6s-.2-1.2-.6-1.6c-.4-.4-.9-.6-1.4-.6-.6,0-1.1.2-1.5.6-.4.4-.6.9-.6,1.6,0,.7.2,1.2.6,1.6.4.4.9.6,1.5.6Z"/>
  <path class="st0" d="M49.5,3.8h2.7v8.2c0,1.3-.4,2.3-1.2,3-.8.7-1.8,1-3.1,1-1.4,0-2.4-.3-3.1-.9-.7-.6-1-1.3-1-2.2h2.7c0,.8.5,1.1,1.5,1.1s1.6-.6,1.6-1.9v-1.3c-.5.9-1.4,1.4-2.7,1.4-1,0-1.8-.3-2.3-.9-.5-.6-.8-1.5-.8-2.6V3.8h2.7v4.5c0,1.2.5,1.8,1.5,1.8s.9-.2,1.2-.6c.3-.4.4-.9.4-1.6V3.8Z"/>
  <path class="st0" d="M59.1,3.6c1.2,0,2.1.4,2.8,1.2.7.8,1.1,1.9,1.1,3.2,0,1.3-.4,2.4-1.1,3.2-.7.8-1.7,1.2-2.8,1.2-.6,0-1.1-.1-1.6-.4-.5-.3-.8-.6-1-1v1.2h-2.7V0h2.7v5c.2-.4.6-.8,1.1-1,.5-.3,1.1-.4,1.7-.4ZM58.3,10.3c.6,0,1.1-.2,1.4-.6.4-.4.6-.9.6-1.6s-.2-1.2-.6-1.6c-.4-.4-.9-.6-1.4-.6-.6,0-1.1.2-1.5.6-.4.4-.6.9-.6,1.6,0,.7.2,1.2.6,1.6.4.4.9.6,1.5.6Z"/>
  <path class="st0" d="M63.9,12.3V0h2.7v12.2h-2.7Z"/>
  <g>
    <path class="st0" d="M.4,19.5c0,0-.1-.2-.1-.3s0-.2.1-.3c0,0,.2-.1.3-.1s.2,0,.3.1c0,0,.1.2.1.3s0,.2-.1.3c0,0-.2.1-.3.1s-.2,0-.3-.1ZM.4,20h.6v2.7H.4v-2.7Z"/>
    <path class="st0" d="M1.8,20h.6v.4c0-.1.2-.3.4-.3.1,0,.3-.1.5-.1.3,0,.6,0,.7.3s.2.4.2.8v1.7h-.6v-1.4c0-.3,0-.5-.1-.6,0-.1-.2-.2-.5-.2s-.4,0-.5.2c-.1.1-.2.3-.2.6v1.5h-.6v-2.7Z"/>
    <path class="st0" d="M6.5,22.2v.6c-.1,0-.3,0-.5,0s-.4,0-.6-.2-.3-.4-.3-.8v-1.3h-.5v-.5h.5v-.8h.6v.8h.6v.5h-.6v1.1c0,.2,0,.3,0,.3,0,0,0,.1.1.2,0,0,.1,0,.2,0s.2,0,.3,0Z"/>
    <path class="st0" d="M9.5,21.6h-2c0,.2,0,.4.2.5.1.1.3.2.5.2s.3,0,.4,0c0,0,.2-.1.2-.2h.6c0,.3-.2.5-.4.6-.2.2-.5.2-.8.2s-.8-.1-1-.4c-.2-.3-.4-.6-.4-1s0-.5.2-.8c.1-.2.3-.4.5-.5.2-.1.4-.2.7-.2s.5,0,.7.2c.2.1.3.3.5.5.1.2.2.4.2.7s0,.2,0,.3ZM8.9,21.1c0-.2,0-.4-.2-.5s-.3-.2-.5-.2-.4,0-.5.2c-.1.1-.2.3-.2.5h1.4Z"/>
    <path class="st0" d="M10.1,20h.6v.5c0-.2.1-.3.3-.4s.3-.1.4-.1.2,0,.2,0v.6c0,0-.1,0-.2,0-.2,0-.4,0-.5.2-.1.2-.2.4-.2.7v1.2h-.6v-2.7Z"/>
    <path class="st0" d="M12.5,22.6c-.2-.1-.3-.3-.4-.5s-.2-.5-.2-.7,0-.5.2-.7.3-.4.5-.5c.2-.1.4-.2.7-.2s.3,0,.5.1c.1,0,.3.2.3.3v-.4h.6v2.7h-.6v-.4c0,.1-.2.2-.4.3s-.3.1-.5.1c-.3,0-.5,0-.7-.2ZM13.9,22c.1-.2.2-.4.2-.6s0-.5-.2-.6c-.1-.2-.3-.2-.6-.2s-.4,0-.6.2c-.1.2-.2.4-.2.6s0,.5.2.6.3.2.6.2.5,0,.6-.2Z"/>
    <path class="st0" d="M15.9,22.6c-.2-.1-.4-.3-.5-.5s-.2-.5-.2-.7,0-.5.2-.7c.1-.2.3-.4.5-.5.2-.1.4-.2.7-.2s.7,0,.9.3c.2.2.4.4.4.8h-.6c0-.2-.1-.3-.2-.4-.1,0-.2-.1-.4-.1s-.4,0-.5.2c-.1.1-.2.4-.2.6s0,.5.2.6.3.2.5.2c.4,0,.6-.1.6-.4h.6c0,.3-.2.5-.4.7-.2.2-.5.3-.9.3s-.5,0-.7-.2Z"/>
    <path class="st0" d="M20,22.2v.6c-.1,0-.3,0-.5,0s-.4,0-.6-.2-.3-.4-.3-.8v-1.3h-.5v-.5h.5v-.8h.6v.8h.6v.5h-.6v1.1c0,.2,0,.3,0,.3,0,0,0,.1.1.2,0,0,.1,0,.2,0s.2,0,.3,0Z"/>
    <path class="st0" d="M20.5,19.5c0,0-.1-.2-.1-.3s0-.2.1-.3c0,0,.2-.1.3-.1s.2,0,.3.1c0,0,.1.2.1.3s0,.2-.1.3c0,0-.2.1-.3.1s-.2,0-.3-.1ZM20.6,20h.6v2.7h-.6v-2.7Z"/>
    <path class="st0" d="M21.6,20h.7l.7,1.9.7-1.9h.7l-1.2,2.7h-.5l-1.2-2.7Z"/>
    <path class="st0" d="M27.1,21.6h-2c0,.2,0,.4.2.5.1.1.3.2.5.2s.3,0,.4,0c0,0,.2-.1.2-.2h.6c0,.3-.2.5-.4.6-.2.2-.5.2-.8.2s-.8-.1-1-.4c-.2-.3-.4-.6-.4-1s0-.5.2-.8c.1-.2.3-.4.5-.5.2-.1.4-.2.7-.2s.5,0,.7.2c.2.1.3.3.5.5.1.2.2.4.2.7s0,.2,0,.3ZM26.5,21.1c0-.2,0-.4-.2-.5s-.3-.2-.5-.2-.4,0-.5.2c-.1.1-.2.3-.2.5h1.4Z"/>
    <path class="st0" d="M28.8,20h.7l.7,1.9.7-1.9h.7l-1.2,2.7h-.5l-1.2-2.7Z"/>
    <path class="st0" d="M32,19.5c0,0-.1-.2-.1-.3s0-.2.1-.3c0,0,.2-.1.3-.1s.2,0,.3.1c0,0,.1.2.1.3s0,.2-.1.3c0,0-.2.1-.3.1s-.2,0-.3-.1ZM32,20h.6v2.7h-.6v-2.7Z"/>
    <path class="st0" d="M36,18.7v4.1h-.6v-.4c0,.1-.2.2-.4.3-.2,0-.3.1-.5.1-.3,0-.5,0-.7-.2-.2-.1-.3-.3-.4-.5s-.2-.5-.2-.7,0-.5.2-.7.3-.4.5-.5.4-.2.7-.2.3,0,.5.1c.1,0,.3.2.3.3v-1.7h.6ZM35.2,22c.1-.2.2-.4.2-.6s0-.5-.2-.6c-.1-.2-.3-.2-.6-.2s-.4,0-.6.2c-.1.2-.2.4-.2.6s0,.5.2.6.3.2.6.2.5,0,.6-.2Z"/>
    <path class="st0" d="M39.2,21.6h-2c0,.2,0,.4.2.5.1.1.3.2.5.2s.3,0,.4,0c0,0,.2-.1.2-.2h.6c0,.3-.2.5-.4.6-.2.2-.5.2-.8.2s-.8-.1-1-.4c-.2-.3-.4-.6-.4-1s0-.5.2-.8c.1-.2.3-.4.5-.5.2-.1.4-.2.7-.2s.5,0,.7.2c.2.1.3.3.5.5s.2.4.2.7,0,.2,0,.3ZM38.6,21.1c0-.2,0-.4-.2-.5-.1-.1-.3-.2-.5-.2s-.4,0-.5.2c-.1.1-.2.3-.2.5h1.4Z"/>
    <path class="st0" d="M40.3,22.6c-.2-.1-.4-.3-.5-.5-.1-.2-.2-.5-.2-.7s0-.5.2-.7c.1-.2.3-.4.5-.5s.5-.2.8-.2.5,0,.8.2c.2.1.4.3.5.5.1.2.2.5.2.7s0,.5-.2.7c-.1.2-.3.4-.5.5-.2.1-.5.2-.8.2s-.5,0-.8-.2ZM41.7,22c.1-.2.2-.4.2-.6s0-.5-.2-.6c-.1-.2-.3-.2-.6-.2s-.4,0-.6.2c-.1.2-.2.4-.2.6s0,.5.2.6.3.2.6.2.4,0,.6-.2Z"/>
    <path class="st0" d="M46.7,20.2c.2.1.3.3.4.5.1.2.2.5.2.7s0,.5-.2.7-.3.4-.5.5c-.2.1-.4.2-.7.2s-.3,0-.5-.1-.3-.2-.4-.3v1.6h-.6v-3.9h.6v.4c0-.1.2-.2.4-.3.2,0,.3-.1.5-.1s.5,0,.7.2ZM46.5,22c.1-.2.2-.4.2-.6s0-.5-.2-.6c-.1-.2-.3-.2-.6-.2s-.4,0-.6.2c-.1.2-.2.4-.2.6s0,.5.2.6c.1.2.3.2.6.2s.4,0,.6-.2Z"/>
    <path class="st0" d="M47.9,18.7h.6v4.1h-.6v-4.1Z"/>
    <path class="st0" d="M49.8,22.6c-.2-.1-.3-.3-.4-.5s-.2-.5-.2-.7,0-.5.2-.7c.1-.2.3-.4.5-.5s.4-.2.7-.2.3,0,.5.1c.1,0,.3.2.3.3v-.4h.6v2.7h-.6v-.4c0,.1-.2.2-.4.3-.2,0-.3.1-.5.1-.3,0-.5,0-.7-.2ZM51.2,22c.1-.2.2-.4.2-.6s0-.5-.2-.6c-.1-.2-.3-.2-.6-.2s-.4,0-.6.2c-.1.2-.2.4-.2.6s0,.5.2.6.3.2.6.2.5,0,.6-.2Z"/>
    <path class="st0" d="M54.3,22.2v.6c-.1,0-.3,0-.5,0s-.4,0-.6-.2c-.2-.1-.3-.4-.3-.8v-1.3h-.5v-.5h.5v-.8h.6v.8h.6v.5h-.6v1.1c0,.2,0,.3,0,.3,0,0,0,.1.1.2,0,0,.1,0,.2,0s.2,0,.3,0Z"/>
    <path class="st0" d="M55.9,19.3c0,0-.1.2-.1.3v.4h.7v.5h-.7v2.2h-.6v-2.2h-.5v-.5h.5v-.4c0-.4,0-.6.3-.8.2-.1.4-.2.6-.2s.3,0,.4,0v.5s0,0-.1,0,0,0-.1,0c-.1,0-.2,0-.3,0Z"/>
    <path class="st0" d="M57.4,22.6c-.2-.1-.4-.3-.5-.5-.1-.2-.2-.5-.2-.7s0-.5.2-.7c.1-.2.3-.4.5-.5s.5-.2.8-.2.5,0,.8.2c.2.1.4.3.5.5.1.2.2.5.2.7s0,.5-.2.7c-.1.2-.3.4-.5.5-.2.1-.5.2-.8.2s-.5,0-.8-.2ZM58.7,22c.1-.2.2-.4.2-.6s0-.5-.2-.6c-.1-.2-.3-.2-.6-.2s-.4,0-.6.2c-.1.2-.2.4-.2.6s0,.5.2.6.3.2.6.2.4,0,.6-.2Z"/>
    <path class="st0" d="M60.1,20h.6v.5c0-.2.1-.3.3-.4s.3-.1.4-.1.2,0,.2,0v.6c0,0-.1,0-.2,0-.2,0-.4,0-.5.2-.1.2-.2.4-.2.7v1.2h-.6v-2.7Z"/>
    <path class="st0" d="M62.2,20h.6v.4c0-.1.2-.2.3-.3.1,0,.3-.1.5-.1.4,0,.7.2.8.5,0-.1.2-.3.3-.3.1,0,.3-.1.5-.1.6,0,1,.4,1,1.1v1.7h-.6v-1.6c0-.2,0-.4-.1-.5,0-.1-.2-.2-.4-.2s-.3,0-.4.2c0,.1-.1.3-.1.6v1.4h-.6v-1.6c0-.2,0-.4-.1-.5,0-.1-.2-.2-.4-.2s-.3,0-.4.2c-.1.1-.2.3-.2.6v1.4h-.6v-2.7Z"/>
  </g>
</svg>