<svg width="67" height="16" viewBox="0 0 67 16" fill="none" xmlns="http://www.w3.org/2000/svg">
<path d="M9.90285 0.180896C9.76706 0.113004 9.60865 0.180896 9.54076 0.294048C8.9071 1.31242 7.79821 1.94607 6.55353 1.94607C5.30886 1.94607 4.19997 1.28979 3.56631 0.294048C3.49842 0.180896 3.34001 0.113004 3.20423 0.180896C2.93266 0.316679 2.66109 0.475092 2.41216 0.633505C2.29901 0.724027 2.25375 0.88244 2.32164 1.01822C3.20423 2.44394 4.78836 3.37179 6.53091 3.37179C8.29608 3.37179 9.88021 2.44394 10.7402 1.01822C10.8081 0.88244 10.7854 0.724027 10.6496 0.633505C10.4233 0.452461 10.1744 0.316679 9.90285 0.180896ZM6.55353 10.3872C4.78836 10.3872 3.20423 11.3151 2.34427 12.7408C2.27638 12.8766 2.29901 13.035 2.43479 13.1255C2.68373 13.2839 2.95529 13.4423 3.22686 13.5781C3.36264 13.646 3.52105 13.5781 3.58895 13.465C4.2226 12.4466 5.33149 11.813 6.57616 11.813C7.82084 11.813 8.92974 12.4692 9.56339 13.465C9.63128 13.6008 9.78969 13.646 9.92548 13.5781C10.197 13.4423 10.4686 13.2839 10.7175 13.1255C10.8307 13.035 10.876 12.8766 10.8081 12.7408C9.88022 11.3151 8.31871 10.3872 6.55353 10.3872ZM10.6044 6.87951C10.6044 5.36327 11.5549 4.07333 12.9127 3.57546C13.0711 3.50757 13.1616 3.32653 13.0711 3.16812C12.9127 2.89655 12.7543 2.64762 12.5732 2.39868C12.5053 2.28553 12.3469 2.2629 12.2338 2.30816C10.4233 3.05496 9.17867 4.82014 9.17867 6.87951C9.17867 8.91625 10.4233 10.7041 12.2338 11.4509C12.3469 11.4961 12.5053 11.4509 12.5732 11.3603C12.7543 11.1114 12.9353 10.8625 13.0711 10.5909C13.1616 10.4325 13.0711 10.2515 12.9127 10.1836C11.5549 9.68569 10.6044 8.39575 10.6044 6.87951ZM0.533833 2.42131C0.35279 2.67025 0.171743 2.91918 0.0359602 3.19075C-0.0545617 3.34916 0.0359629 3.5302 0.194376 3.59809C1.5522 4.09596 2.50268 5.3859 2.50268 6.90214C2.50268 8.39575 1.5522 9.70832 0.194376 10.1836C0.0359629 10.2515 -0.0545617 10.4325 0.0359602 10.5909C0.194373 10.8625 0.35279 11.1114 0.533833 11.3603C0.601725 11.4735 0.760138 11.4961 0.87329 11.4509C2.6611 10.7041 3.9284 8.93888 3.9284 6.87951C3.9284 4.82014 2.68373 3.05496 0.87329 2.30816C0.760138 2.2629 0.624355 2.30816 0.533833 2.42131Z" fill="#B8EF36"/>
<path d="M21.6933 10.1608C22.0554 10.1608 22.3722 10.1382 22.6211 10.1156V12.2428C22.1006 12.3334 21.5122 12.3786 20.8333 12.3786C20.5391 12.3786 20.2676 12.356 20.0186 12.3334C19.7923 12.2881 19.5208 12.2202 19.2266 12.1071C18.9324 11.9939 18.7061 11.8129 18.5024 11.6092C18.3213 11.4055 18.1629 11.0887 18.0272 10.704C17.8914 10.2966 17.8235 9.84402 17.8235 9.30089V5.95157H16.4883V3.84694H17.8235V1.33496H20.4939V3.84694H22.3948V5.95157H20.4939V8.75776C20.4939 9.32352 20.5844 9.70823 20.7881 9.91191C21.0144 10.0703 21.3086 10.1608 21.6933 10.1608Z" fill="white"/>
<path d="M26.7621 12.469C25.54 12.469 24.5669 12.0616 23.8654 11.2243C23.1638 10.387 22.8018 9.32334 22.8018 8.0334C22.8018 6.74346 23.1638 5.67983 23.9106 4.8425C24.6348 4.00518 25.6079 3.5752 26.8073 3.5752C27.3957 3.5752 27.9389 3.71098 28.3915 3.95992C28.8667 4.20885 29.2062 4.57094 29.4325 5.00092V3.8015H32.0802V12.22H29.4551V11.0206C29.2288 11.4506 28.8667 11.7901 28.3689 12.039C27.8936 12.3332 27.3505 12.469 26.7621 12.469ZM27.5315 10.2512C28.1652 10.2512 28.663 10.0475 29.0251 9.61753C29.3646 9.18755 29.5456 8.66705 29.5456 8.0334C29.5456 7.39975 29.3646 6.87925 29.0251 6.44927C28.6857 6.01929 28.1878 5.81562 27.5315 5.81562C26.9205 5.81562 26.4453 6.01929 26.0605 6.42664C25.6985 6.83398 25.5174 7.35448 25.5174 8.01077C25.5174 8.66705 25.6985 9.18755 26.0605 9.61753C26.4453 10.0475 26.9431 10.2512 27.5315 10.2512Z" fill="white"/>
<path d="M39.0503 3.59814C40.2044 3.59814 41.1323 4.00549 41.8565 4.82019C42.5806 5.63489 42.9427 6.69852 42.9427 8.03372C42.9427 9.34628 42.5806 10.4099 41.8338 11.2472C41.1097 12.0619 40.1592 12.4693 38.9824 12.4693C38.3714 12.4693 37.8282 12.3335 37.353 12.0619C36.8778 11.7904 36.5157 11.4509 36.312 11.0436V15.7281H33.6416V3.80182H36.312V5.00124C36.5383 4.57126 36.9004 4.2318 37.3983 3.96023C37.8961 3.73393 38.4393 3.59814 39.0503 3.59814ZM38.213 10.2515C38.8014 10.2515 39.2766 10.0478 39.6387 9.64048C40.0008 9.23313 40.2044 8.69 40.2044 8.03372C40.2044 7.37743 40.0234 6.85693 39.6387 6.44958C39.254 6.04224 38.7787 5.83856 38.213 5.83856C37.6019 5.83856 37.1267 6.04224 36.742 6.44958C36.3799 6.85693 36.1762 7.37743 36.1762 8.03372C36.1762 8.69 36.3573 9.23313 36.742 9.64048C37.1267 10.0478 37.6019 10.2515 38.213 10.2515Z" fill="white"/>
<path d="M49.5288 3.82471H52.1992V11.9943C52.1992 13.3069 51.7918 14.3252 50.9997 15.0268C50.2529 15.6831 49.2119 15.9999 47.8994 15.9999C46.5415 15.9999 45.5005 15.7057 44.7764 15.1173C44.0974 14.5289 43.7354 13.8047 43.7354 12.8995H46.4284C46.4963 13.669 46.9715 14.031 47.8994 14.031C48.9856 14.031 49.5288 13.3974 49.5288 12.1527V10.8402C49.0309 11.768 48.1483 12.2432 46.8584 12.2432C45.8174 12.2432 45.0479 11.9264 44.5274 11.2928C44.0069 10.6591 43.758 9.79915 43.758 8.71289V3.82471H46.4284V8.32817C46.4284 9.55021 46.9262 10.1386 47.922 10.1386C48.4425 10.1386 48.8498 9.95756 49.1214 9.57284C49.393 9.18813 49.5514 8.66763 49.5514 8.01134V3.82471H49.5288Z" fill="white"/>
<path d="M59.147 3.59824C60.3011 3.59824 61.229 4.00559 61.9531 4.82029C62.6773 5.63498 63.0394 6.69862 63.0394 8.03382C63.0394 9.34638 62.6773 10.41 61.9305 11.2473C61.2063 12.062 60.2559 12.4694 59.0791 12.4694C58.4681 12.4694 57.9249 12.3336 57.4497 12.062C56.9744 11.7905 56.6123 11.451 56.4087 11.0437V12.2431H53.7383V0H56.386V5.04659C56.6124 4.61661 56.9744 4.27716 57.4723 4.0056C57.9702 3.73403 58.5359 3.59824 59.147 3.59824ZM58.3096 10.2516C58.898 10.2516 59.3733 10.0479 59.7354 9.64058C60.0974 9.23323 60.3011 8.6901 60.3011 8.03382C60.3011 7.37753 60.1201 6.85703 59.7354 6.44968C59.3733 6.04233 58.8754 5.83866 58.3096 5.83866C57.6986 5.83866 57.2234 6.04233 56.8387 6.44968C56.4766 6.85703 56.2729 7.37753 56.2729 8.03382C56.2729 8.6901 56.4539 9.23323 56.8387 9.64058C57.2234 10.0479 57.6986 10.2516 58.3096 10.2516Z" fill="white"/>
<path d="M66.5932 0H63.9229V12.2431H66.5932V0Z" fill="white"/>
</svg>
