<svg width="33" height="32" viewBox="0 0 33 32" fill="none" xmlns="http://www.w3.org/2000/svg">
<path d="M24.2484 14.3755C22.6679 14.4106 21.1928 13.9189 19.9284 13.0058V19.2925C19.9284 21.6808 18.4533 23.7881 16.2055 24.631C13.9929 25.4739 11.4641 24.8417 9.91879 23.0505C8.33832 21.2242 8.05734 18.6604 9.18123 16.5531C10.3051 14.4809 12.6231 13.3219 15.0114 13.638V16.7989C13.9226 16.4477 12.7285 16.834 12.0612 17.7472C11.429 18.6955 11.429 19.9247 12.0963 20.8379C12.7636 21.751 13.9578 22.1374 15.0114 21.7862C16.1002 21.435 16.8377 20.4164 16.8377 19.2925V7H19.9284C19.9284 7.28097 19.9284 7.52682 19.9987 7.8078C20.2094 8.96681 20.8767 9.98533 21.8952 10.6175C22.5625 11.0741 23.4055 11.32 24.2484 11.32V14.3755Z" fill="white"/>
</svg>
